<svg xmlns="http://www.w3.org/2000/svg" xml:space="preserve" width="70px" height="70px" version="1.1" style="shape-rendering:geometricPrecision; text-rendering:geometricPrecision; image-rendering:optimizeQuality; fill-rule:evenodd; clip-rule:evenodd" viewBox="0 0 141.78 169.26" xmlns:xlink="http://www.w3.org/1999/xlink" xmlns:xodm="http://www.corel.com/coreldraw/odm/2003">
 <defs>
  <style type="text/css">
   
    .fil1 {fill:#417083}
    .fil0 {fill:white}
   
  </style>
 </defs>
 <g id="Слой_x0020_1">
  <metadata id="CorelCorpID_0Corel-Layer"></metadata>
  <g id="_2639138648000">
   
   <path class="fil1" d="M128.69 42.99c0.41,0.46 5.78,11.44 6.75,13.36 0.66,1.32 0.45,1.9 0.45,3.56 -0,29.49 0.11,59.09 -0,88.54 -0.01,1.85 0.36,6.36 -0.44,7.59 -1.18,1.81 -4.17,1.28 -6.76,1.28 -2.6,0 -5.57,0.54 -6.76,-1.28 -0.77,-1.18 -0.45,-5.76 -0.45,-7.59l0 -88.54c0,-1.64 -0.21,-2.29 0.46,-3.56 0.84,-1.62 6.27,-12.73 6.75,-13.36l-0 0zm-118.22 95.51l27.88 -0.03c0.4,3.32 0.68,6.65 1.04,9.79 0.26,2.31 0.21,5.19 0.99,7.18 0.28,0.72 0.75,1.28 0.93,1.89 -8.3,0.03 -16.6,-0.01 -24.9,0 -2.09,0 -3.54,-0.42 -4.57,-1.53 -1.2,-1.28 -1.39,-2.6 -1.38,-4.85 0.01,-4.09 -0.13,-8.37 0.01,-12.45l-0 0zm30.4 -8.9l33.52 -0.01c0.03,1.07 -0.8,8.41 -0.97,10.12 -0.22,2.2 -1.03,13.25 -1.79,14.83 -0.55,1.13 -1.7,2.16 -3,2.56 -1.61,0.49 -8.75,0.23 -11,0.23 -2.17,0 -9.33,0.25 -10.89,-0.2 -3.76,-1.1 -3.59,-4.51 -3.91,-7.25l-1.96 -20.28 0 0zm-1.38 -13.34l36.24 0 -0.92 9.94 -34.32 0.05 -1 -9.99 -0 -0zm28.69 -57.7l49.93 -0.02c0.16,2.03 0.03,9.78 0.03,12.34l0 80.77c0,1 -0.03,2.07 0,3.06 0.05,1.25 0.43,1.71 0.57,2.63l-44.8 -0c0.36,-0.94 0.85,-1.37 1.2,-2.5 0.55,-1.79 3.58,-34.1 3.97,-37.95 0.35,-3.51 0.43,-3.95 -3.26,-3.95 -2.39,0 -5.28,0.14 -7.61,-0.03l-0.03 -54.33 0 0zm-30.19 76.49l-27.5 0.06 -0.02 -32.14 36.58 -0.02 0.02 9.95c-2.83,0.12 -5.89,0.01 -8.73,0.01 -1.53,-0 -2.44,0.5 -2.34,2.1 0.08,1.37 0.32,2.7 0.41,4.03 0.3,4.66 1.47,12.03 1.58,16.02l0 -0.01zm9.06 -35.47l-36.57 0.01c-0.17,-2.51 -0.21,-6.77 0.27,-9 0.76,-3.54 2.64,-6.53 5.31,-8.55 1.24,-0.93 1.47,-1.32 3.41,-1.31l18.6 0c1.95,-0.01 2.1,0.35 3.32,1.25 2.57,1.9 4.81,5.24 5.44,8.61 0.4,2.15 0.38,6.66 0.22,8.99l0 0zm-27.71 -27.71l18.83 -0.01 0.02 5.51 -18.83 0.03 -0.02 -5.52 0 -0zm22.17 -3.39c-2.24,0.13 -4.67,-0.03 -6.88,0.06 -2.03,0.09 -4.37,0.04 -6.12,0.03 -4.07,-0.02 -8.14,0.02 -12.2,-0.09 -0.04,-0.01 -0.09,-0.02 -0.12,-0.03 -0.03,-0.01 -0.08,-0.01 -0.11,-0.03 -0.61,-2.82 0.13,-5.74 3.54,-5.52 5.77,0.36 12.44,0.09 18.32,0.07 3.68,-0.01 3.81,2.02 3.58,5.51l0 0zm44.47 -29.22c0.43,-0.02 0.85,0.13 1.21,0.25 4.41,1.49 11.95,1.35 16.55,0.84 1.21,-0.14 1.84,-0.27 2.88,-0.45 0.98,-0.17 1.71,-0.48 2.62,-0.66 0.18,4.41 0.66,4.85 -3.26,6.01 -4.74,1.4 -11.87,1.4 -16.65,0.03 -0.87,-0.25 -2.72,-0.93 -3.18,-1.53 -0.38,-0.5 -0.22,-3.62 -0.18,-4.48l0 -0zm32.58 15.93l-49.25 0c0.11,-0.64 1.34,-2.86 1.69,-3.57 1.64,-3.37 3.98,-7.71 5.42,-10.83l6.18 -0.04c0.21,3.05 -0.82,5.35 4.62,7.33 3.11,1.13 6.8,1.55 10.39,1.55 3.6,0 7.26,-0.43 10.39,-1.55 5.43,-1.95 4.4,-4.32 4.62,-7.3l13.3 -0.03c-0.16,0.71 -2.99,6.13 -3.55,7.28l-2.74 5.46c-0.39,0.76 -0.57,1.45 -1.07,1.7l-0.01 0zm2.94 -27.74c0.9,-0.03 4.74,-0.16 5.33,0.12 0.41,0.75 0.26,8.42 0.16,9.84l-5.51 -0.01 0.02 -9.95 0 0zm-8.91 0.01l5.51 -0.03 0.03 9.95 -5.51 0.02 -0.03 -9.94zm-30.01 -0l0.02 9.92 -5.5 0.03c-0.17,-2.38 -0.03,-5.31 -0.03,-7.76 -0,-2.11 -0.42,-2.23 1.66,-2.22 1.24,0.01 2.64,-0.06 3.85,0.03l0 0zm21.16 -0.02l5.51 0.01 -0.01 4.84c-0.92,-0.2 -1.74,-0.5 -2.63,-0.7 -0.95,-0.21 -1.85,-0.34 -2.89,-0.48l0.02 -3.68 -0 0zm-17.78 4.88l-0.01 -4.86 5.51 -0.03 0.01 3.68c-1.02,0.13 -1.97,0.27 -2.88,0.47 -0.77,0.17 -2.12,0.69 -2.64,0.73l0 0zm8.9 -4.88l5.51 0.03 -0 3.31 -5.53 0.01 0.03 -3.35 0 0zm-30.04 85.45l-14.37 0.02c-0.27,-3.69 0.21,-19.32 -0.17,-21.64 -0.56,-3.46 -1.36,-5.48 -3.02,-7.94 -1.16,-1.72 -3.71,-4.31 -5.71,-5.25l-0.01 -6.21c1.35,-0.06 2.52,0.2 3.09,-0.81 0.41,-0.73 0.25,-2.82 0.25,-3.79 0,-3.03 -0.28,-4.34 -1.95,-5.97 -1.7,-1.65 -3.39,-1.67 -6.25,-1.67l-15.82 0c-2.95,0 -4.53,0.1 -6.24,1.67 -1.68,1.54 -1.95,3.03 -1.95,5.97 0,0.94 -0.15,2.97 0.21,3.69 0.58,1.18 1.75,0.82 3.1,0.92l0.03 6.19c-2.53,1.31 -4.65,3.62 -6.16,5.92 -1.61,2.44 -2.74,5.95 -2.69,9.5 0.1,8.03 -0.03,16.22 -0.03,24.29 0,1.38 -0.22,34.35 0.17,36.21 0.36,1.69 1.18,3.08 2.05,4.04 1.49,1.64 4.41,2.64 6.53,2.64l23.32 -0c1.08,0 2.26,0.04 3.34,-0.01 0.78,-0.04 2.36,-0.52 2.72,-0.47 0.9,0.1 1.57,0.46 2.82,0.49 5.17,0.12 11.52,0 16.8,0 1.04,0 2.28,0.07 3.29,-0.06 1.45,-0.19 1.73,0.05 3.09,0.06 19.85,0.15 40.18,-0 60.09,-0 2.38,0 3.83,-0.03 5.45,-1.22 3.33,-2.44 2.46,-6.6 2.47,-10.86l0 -90.34c0,-1.53 0.11,-1.61 -0.52,-2.82l-7.77 -15.54c-0.65,-1.3 -0.6,-1.04 -0.6,-2.73 0.01,-2.27 0,-4.53 0,-6.8 0,-6.18 -1.43,-6.25 -7.08,-6.25l-40.25 0c-3.64,0 -9.19,-1.09 -9.31,4.03 -0.07,3.29 0.08,6.83 0.01,10.01 -0.02,0.98 -0.52,1.61 -0.92,2.4 -1.48,2.98 -2.92,5.94 -4.45,8.88 -0.78,1.5 -1.43,2.91 -2.22,4.44 -1.26,2.44 -1.32,2.2 -1.3,5.5l0 46.77c0,2.15 0.12,4.67 -0.03,6.77l-0 0.01z"></path>
  </g>
 </g>
</svg>